# xmcd CD database file
#
# Track frame offsets:
#	150
#	16345
#	35997
#	53760
#	74332
#	102277
#	123430
#	149982
#	173095
#	192082
#
# Disc length: 2862 seconds
#
# Revision: 3
# Processed by: cddbd v1.5.2PL0 Copyright (c) Steve Scherf et al.
# Submitted via: CDex 1.70beta2
#
DISCID=940b2c0a
DTITLE=吉田拓郎 - Long time no see
DYEAR=1995
DGENRE=Blues
TTITLE0=とんと御無沙汰
TTITLE1=淋しき街
TTITLE2=夢見る時を過ぎ
TTITLE3=オー・ボーイ
TTITLE4=マスターの独り言
TTITLE5=君のスピードで
TTITLE6=永遠の嘘をついてくれ
TTITLE7=生きていなけりゃ
TTITLE8=To the Moon
TTITLE9=夕陽と少年
EXTD=YEAR: 1995
EXTT0=
EXTT1=
EXTT2=
EXTT3=
EXTT4=
EXTT5=
EXTT6=
EXTT7=
EXTT8=
EXTT9=
PLAYORDER=
